<?xml version="1.0" encoding="UTF-8" standalone="no"?>
<svg
   version="1.1"
   width="4.0000in"
   height="4.0000in"
   viewBox="0 0 288.0000 288.0000"
   id="svg207"
   xmlns="http://www.w3.org/2000/svg"
   xmlns:svg="http://www.w3.org/2000/svg">
  <defs
     id="defs207" />
  <path
     id="rect207"
     style="opacity:1;fill:#003333;stroke-width:1.45123"
     d="m 37.5,0.35999998 h 213 C 271.275,0.35999998 288,17.085 288,37.86 v 213.00003 c 0,20.775 -16.725,37.5 -37.5,37.5 h -213 c -20.775,0 -37.5,-16.725 -37.5,-37.5 V 37.86 C 0,17.085 16.725,0.35999998 37.5,0.35999998 Z" />
  <path
     d="M 0,0 V 288 H 288 V 0 Z"
     style="display:none;fill:#003333;fill-opacity:1;fill-rule:evenodd"
     id="path1" />
  <g
     id="Layer1000"
     style="display:inline;fill:#ffffff">
    <g
       id="Layer1001"
       style="fill:#ffffff">
      <g
         id="Layer1002"
         style="fill:#ffffff">
        <g
           id="Layer1003"
           style="fill:#ffffff">
          <g
             id="Layer1004"
             style="fill:#ffffff">
            <path
               d="m 161.0325,152.1622 h 0.0676 c 0.6746,15.9656 0.9902,24.8024 0.9443,26.5103 -0.1807,6.0711 -1.395,11.1761 -3.6426,15.3126 -0.1808,0.2699 -0.3158,0.4047 -0.4047,0.4047 -0.135,0 -0.2024,-0.2913 -0.2024,-0.877 0.0459,-0.4505 0.1134,-1.0576 0.2024,-1.8213 0.2239,-1.7996 0.3831,-3.8666 0.4722,-6.2059 0.0459,-2.1128 -0.2914,-12.3445 -1.0119,-30.6927 -0.0459,-0.8985 -0.0674,-1.7996 -0.0674,-2.6982 -0.8096,-23.5207 -1.1927,-36.1107 -1.1469,-37.7755 0.046,-2.1128 -0.2239,-3.8909 -0.8094,-5.3291 0.0459,-0.8985 0.7205,-2.7198 2.0237,-5.4638 0.1349,-0.3158 0.2699,-0.4723 0.4047,-0.4723 0.1808,0 0.3373,0.1808 0.4723,0.5397 0.3157,0.7636 1.0576,2.8791 2.226,6.3408 1.619,4.6762 2.4284,7.3528 2.4284,8.0274 -0.0458,0.3156 -0.1565,0.4721 -0.3373,0.4721 -0.4047,-0.0458 -1.2358,-0.831 -2.4958,-2.361 -0.0891,-0.089 -0.1565,-0.1348 -0.2025,-0.1348 -0.089,0 -0.1348,0.1808 -0.1348,0.5396 0,0.224 0.4263,12.1205 1.2817,35.6844 z"
               style="fill:#ffffff;fill-rule:evenodd"
               id="path2" />
          </g>
          <g
             id="Layer1005"
             style="fill:#ffffff">
            <path
               d="m 77.6567,113.9819 c 0,-0.0458 0.1348,-0.2239 0.4047,-0.5396 1.3032,-1.4381 1.9562,-2.4069 1.9562,-2.9007 0,-0.4506 -0.2024,-0.6745 -0.6071,-0.6745 -0.2239,0 -0.4263,0.0566 -0.6071,0.17 -0.1808,0.1107 -0.2914,0.1673 -0.3373,0.1673 h -0.0675 l 0.0675,-0.4047 c 0.2239,-0.9903 0.7205,-1.484 1.4841,-1.484 0.6744,0 1.0117,0.4047 1.0117,1.2141 0,0.6288 -0.2589,1.3275 -0.7743,2.0911 -0.5181,0.7637 -1.1818,1.4382 -1.9914,2.0237 -0.3156,0.2239 -0.4938,0.3373 -0.5395,0.3373 z"
               style="fill:#ffffff;fill-rule:evenodd"
               id="path3" />
          </g>
          <g
             id="Layer1006"
             style="fill:#ffffff">
            <path
               d="m 83.93,190.4098 c 0,-0.0458 0.135,-0.2239 0.4047,-0.5395 1.3034,-1.4382 1.9563,-2.407 1.9563,-2.9007 0,-0.4505 -0.2024,-0.6746 -0.6071,-0.6746 -0.2239,0 -0.4264,0.0568 -0.607,0.1701 -0.1808,0.1106 -0.2915,0.1672 -0.3373,0.1672 H 84.672 l 0.0676,-0.4047 c 0.2239,-0.9902 0.7204,-1.484 1.484,-1.484 0.6746,0 1.0118,0.4047 1.0118,1.2141 0,0.6288 -0.259,1.3277 -0.7744,2.0913 -0.5181,0.7635 -1.1818,1.438 -1.9912,2.0235 -0.3158,0.2241 -0.4938,0.3373 -0.5398,0.3373 z"
               style="fill:#ffffff;fill-rule:evenodd"
               id="path4" />
          </g>
          <g
             id="Layer1007"
             style="fill:#ffffff">
            <path
               d="m 193.2093,153.1065 c 0,-0.0458 0.1565,-0.2482 0.4722,-0.607 1.5299,-1.6649 2.2935,-2.7657 2.2935,-3.3054 0,-0.5397 -0.2484,-0.8094 -0.7421,-0.8094 -0.2697,0 -0.5396,0.0889 -0.8095,0.2697 l -0.2698,0.135 -0.0674,-0.0674 0.0674,-0.4049 c 0.2241,-1.1683 0.7879,-1.7538 1.6864,-1.7538 0.7636,0 1.1469,0.4723 1.1469,1.4165 0,0.7205 -0.2915,1.53 -0.877,2.4286 -0.5855,0.8985 -1.3275,1.6648 -2.2262,2.2934 -0.4047,0.2699 -0.6286,0.4047 -0.6744,0.4047 z"
               style="fill:#ffffff;fill-rule:evenodd"
               id="path5" />
          </g>
          <g
             id="Layer1008"
             style="fill:#ffffff">
            <path
               d="m 156.513,99.0742 c 0,-0.135 0.224,-0.5181 0.6745,-1.1469 2.1588,-3.103 3.238,-5.1725 3.238,-6.206 v -0.2024 c -0.135,-0.8094 -0.518,-1.2141 -1.1468,-1.2141 -0.6746,0 -1.1927,0.1808 -1.5514,0.5395 l -0.5398,0.4049 c 0,-0.0459 -0.0674,-0.0676 -0.2022,-0.0676 0.0458,-0.1348 0.0674,-0.4047 0.0674,-0.8094 0.1808,-2.0695 1.0576,-3.2163 2.6308,-3.4403 h 0.4047 c 1.0793,0 1.708,0.742 1.8887,2.2262 l 0.0675,0.6745 c 0,1.0793 -0.3373,2.3151 -1.0119,3.71 -0.8094,1.7539 -1.9561,3.3271 -3.4402,4.722 -0.5855,0.5397 -0.9443,0.8096 -1.0793,0.8096 z"
               style="fill:#ffffff;fill-rule:evenodd"
               id="path6" />
          </g>
          <g
             id="Layer1009"
             style="fill:#ffffff">
            <path
               d="m 94.5881,158.4356 c -0.1348,0 -0.2023,-0.1808 -0.2023,-0.5397 0,-0.6286 -0.3589,-1.8321 -1.0793,-3.6076 -0.7205,-1.7781 -1.2142,-2.6658 -1.4841,-2.6658 -0.2239,0 -0.3588,0.0674 -0.4047,0.2024 -0.0458,0.1349 -0.2024,0.2023 -0.4721,0.2023 -0.359,0 -0.788,-0.2347 -1.2817,-0.7068 -0.4938,-0.4723 -0.742,-0.8446 -0.742,-1.1144 0,-0.1349 0.2131,-0.5612 0.6421,-1.2817 0.4263,-0.7204 0.6854,-1.0793 0.7744,-1.0793 1.0335,0 1.967,0.6179 2.8008,1.8564 0.8311,1.2357 1.4274,2.8655 1.7862,4.8892 v 0.3373 h 0.0674 c 0.046,0 0.0676,-0.0216 0.0676,-0.0674 0,-0.0459 0.0458,-0.135 0.1348,-0.2699 0.1349,-1.2142 0.5398,-2.9897 1.2143,-5.3291 0.7204,-1.7079 1.484,-2.5632 2.2934,-2.5632 0.4507,0 0.8662,0.2697 1.2494,0.8094 0.3804,0.5397 0.5721,0.9659 0.5721,1.2817 0,0.2239 -0.0676,0.5747 -0.2025,1.0468 -0.1348,0.4723 -0.3156,0.707 -0.5397,0.707 -0.0889,0 -0.2913,-0.2024 -0.607,-0.6071 -0.3158,-0.4047 -0.6531,-0.6071 -1.0118,-0.6071 -0.7205,0 -1.3951,1.754 -2.0237,5.2616 -0.2699,1.53 -0.5855,2.6092 -0.9445,3.2379 -0.2239,0.4047 -0.4263,0.6071 -0.6071,0.6071 z"
               style="fill:#ffffff;fill-rule:evenodd"
               id="path7" />
          </g>
          <g
             id="Layer1010"
             style="fill:#ffffff">
            <path
               d="m 88.3822,131.9254 c -0.1808,0 -0.2699,-0.2025 -0.2699,-0.6072 0,-0.6287 -0.348,-1.8321 -1.0442,-3.6075 -0.6988,-1.7782 -1.1818,-2.666 -1.4516,-2.666 -0.224,0 -0.3696,0.0676 -0.4372,0.2024 -0.0674,0.1349 -0.2374,0.2025 -0.5073,0.2025 -0.3156,0 -0.7203,-0.2348 -1.2141,-0.7071 -0.4938,-0.4721 -0.742,-0.8445 -0.742,-1.1144 0,-0.1348 0.2131,-0.5503 0.6421,-1.2466 0.4264,-0.6988 0.6854,-1.0468 0.7745,-1.0468 1.0333,0 1.9669,0.607 2.8008,1.8213 0.831,1.2141 1.4031,2.8331 1.7187,4.8568 l 0.0674,0.1349 v 0.2024 h 0.0675 c 0.0459,0 0.0782,-0.0323 0.1025,-0.0999 0.0216,-0.0674 0.054,-0.1483 0.0999,-0.2374 0.1348,-1.2141 0.5397,-2.9896 1.2141,-5.3289 0.6746,-1.7081 1.4382,-2.5635 2.2936,-2.5635 0.4506,0 0.8662,0.2699 1.2492,0.8095 0.3806,0.5397 0.5722,0.966 0.5722,1.2817 0,0.2698 -0.0676,0.5855 -0.2024,0.9444 -0.1349,0.5396 -0.3157,0.8094 -0.5397,0.8094 -0.0891,0 -0.2914,-0.2023 -0.607,-0.6071 -0.3158,-0.4047 -0.6531,-0.607 -1.0119,-0.607 -0.7205,0 -1.3951,1.7538 -2.0237,5.2615 -0.5397,2.6092 -1.0578,3.9126 -1.5515,3.9126 z"
               style="fill:#ffffff;fill-rule:evenodd"
               id="path8" />
          </g>
          <g
             id="Layer1011"
             style="fill:#ffffff">
            <path
               d="m 145.3153,140.4247 c 5.8902,3.0141 11.4217,4.0691 16.5942,3.1706 2.3826,0 4.7004,-0.877 6.948,-2.6309 0.6287,-0.4937 0.9444,-2.4284 0.9444,-5.8012 0,-2.1586 -0.5612,-10.4558 -1.6864,-24.8914 -0.9902,-14.5705 -1.484,-23.1159 -1.484,-25.6334 0,-2.3825 -0.3832,-4.3171 -1.1469,-5.8013 0,-0.8984 0.6962,-2.9896 2.0913,-6.2733 0.0889,-0.359 0.2023,-0.5398 0.3373,-0.5398 0.1349,0 0.3373,0.2484 0.607,0.7422 0.3589,0.7635 1.2359,3.0355 2.6308,6.8131 0.0891,0.2239 0.1349,0.4047 0.1349,0.5396 1.3951,3.6426 2.2261,5.9146 2.496,6.813 0.2239,0.7637 0.3373,1.2601 0.3373,1.484 0,0.9904 -1.0578,0.359 -3.1706,-1.8887 -0.2697,-0.3589 -0.4047,-0.2239 -0.4047,0.4047 0,0.1349 0.5181,6.5892 1.5516,19.3601 0.8553,12.7275 1.2817,20.3259 1.2817,22.8001 0,7.1963 -1.2603,12.7951 -3.7776,16.7966 -2.3826,3.2838 -4.946,4.9702 -7.6901,5.0593 -8.0488,0.5397 -14.8403,-1.1684 -20.3717,-5.1267 l -9.0392,-6.5433 c -0.3589,-0.3589 -0.788,-0.742 -1.2817,-1.1467 -0.5396,-0.224 -0.8554,-0.3373 -0.9443,-0.3373 -0.135,0 -0.0216,0.3157 0.3373,0.9443 1.3949,2.6092 2.0911,4.4981 2.0911,5.6664 0,4.1365 -1.4382,7.2638 -4.3173,9.3764 -2.2935,1.5299 -7.1961,3.5967 -14.7054,6.2061 l -1.3492,0.607 c -3.7775,1.619 -6.2734,2.9897 -7.4876,4.1148 -2.6524,1.8888 -6.3625,5.6664 -11.1302,11.3326 -2.8791,3.238 -5.7798,4.857 -8.702,4.857 -2.3825,0 -4.4521,-1.0578 -6.2059,-3.1705 -2.0237,-2.3825 -3.0356,-5.2156 -3.0356,-8.4994 0,-4.4981 1.8889,-10.3884 5.6664,-17.6736 0.4047,-0.7636 0.7204,-1.1467 0.9444,-1.1467 0.1349,0 0.2023,0.1348 0.2023,0.4047 0,0.6286 -0.8094,3.1245 -2.4284,7.4877 -1.6648,4.4061 -2.4958,7.8707 -2.4958,10.3882 0,1.8887 0.4506,3.3943 1.3491,4.5195 0.9902,1.2601 2.315,1.8889 3.9798,1.8889 3.0141,0 6.0711,-1.5057 9.1741,-4.5197 l 3.0355,-3.5751 c 0.8985,-1.1253 1.843,-2.2477 2.8332,-3.3729 2.6524,-2.9222 6.0494,-5.5097 10.1859,-7.7575 2.3826,-1.2601 6.5892,-2.9465 12.6143,-5.0591 4.1365,-1.5299 7.0154,-2.7873 8.6344,-3.7775 0.7636,-0.4049 1.0335,-0.9661 0.8096,-1.6865 -1.3951,-4.0474 -6.9265,-9.2631 -16.5943,-15.6499 L 89.1917,113.6446 c -1.1252,-0.6286 -2.2721,-1.3032 -3.4404,-2.0237 -0.2239,-0.2698 -0.3373,-1.1009 -0.3373,-2.4958 0,-1.7539 0.2484,-3.6211 0.7422,-5.5988 0.4937,-2.1587 1.125,-3.4862 1.8887,-3.98 5.1266,-3.7776 16.2354,-8.8152 33.3235,-15.1102 17.3578,-6.3867 28.8038,-9.5788 34.3352,-9.5788 1.619,0 2.744,0.2482 3.3728,0.742 0.6286,0.6286 0.9444,1.5731 0.9444,2.8331 0,2.8791 -2.137,6.5218 -6.4084,10.928 l -2.6308,2.2935 c -0.7636,0.6286 -1.5299,1.3032 -2.2936,2.0237 -2.6092,2.5175 -4.363,4.5412 -5.2615,6.071 -0.6286,0.9903 -1.0576,1.4841 -1.2817,1.4841 -0.1349,0 -0.0215,-0.6962 0.3373,-2.0911 0.135,-0.7205 0.831,-2.0237 2.0911,-3.9126 1.1252,-1.7538 2.0022,-2.9005 2.6308,-3.4402 4.9028,-4.3631 7.8466,-7.2395 8.8368,-8.6344 v -0.5397 c 0,-0.7635 -1.3707,-1.1467 -4.1148,-1.1467 -4.2713,0 -14.5706,3.0139 -30.8949,9.0391 -16.3245,6.1601 -27.5006,11.1763 -33.5258,15.0427 -0.4049,0.2699 -0.3589,0.5181 0.1349,0.7422 5.3074,2.6523 10.5906,5.3749 15.8521,8.1621 12.4579,6.7456 23.4532,13.4022 32.9862,19.9671 2.8791,1.9778 5.8228,3.9798 8.8368,6.0035 z"
               style="fill:#ffffff;fill-rule:evenodd"
               id="path9" />
          </g>
          <g
             id="Layer1012"
             style="fill:#ffffff">
            <path
               d="m 126.8323,115.9382 c -0.089,-0.2239 -0.1808,-0.5612 -0.2698,-1.0119 l -0.0675,-0.135 c -1.6649,-4.1363 -2.8116,-8.208 -3.4404,-12.2095 -0.0889,-0.7636 -0.2022,-1.2142 -0.3371,-1.3491 -0.135,-0.6288 -0.5181,-1.2601 -1.1469,-1.8888 l 2.0912,-3.9799 c 0.3589,-0.6287 0.6745,-0.9444 0.9444,-0.9444 0.1349,0 0.4506,0.3157 0.9444,0.9444 l 5.2616,6.8131 c 0.7636,0.8985 1.1468,1.5298 1.1468,1.8887 0,0.359 -0.2024,0.5397 -0.6071,0.5397 -0.6288,0 -1.7539,-0.4263 -3.3729,-1.2817 0.4938,2.6092 1.5731,5.8687 3.2379,9.7813 0.3589,0.9902 1.5973,2.0452 3.7101,3.1704 2.1585,1.26 4.811,2.2719 7.9598,3.0355 1.2602,0.4047 1.8214,1.1008 1.6864,2.0912 l -1.1467,4.8568 c -0.1349,0.5397 -0.8311,0.5397 -2.0911,0 -3.238,-1.484 -7.2395,-2.2262 -12.0072,-2.2262 -6.5649,0 -14.4142,2.8791 -23.5423,8.6346 -2.0237,1.26 -3.98,2.5174 -5.8687,3.7775 l -8.2971,5.6663 c -3.5078,2.0237 -6.6998,3.0355 -9.5788,3.0355 -3.014,0 -5.6664,-1.0793 -7.9599,-3.2378 -2.3825,-2.2476 -3.5751,-5.0135 -3.5751,-8.2973 0,-4.6327 2.3393,-10.5906 7.0153,-17.8758 0.4938,-0.6287 0.8554,-0.9445 1.0795,-0.9445 0.1348,0 0.2023,0.0676 0.2023,0.2025 0,0.7636 -1.0119,3.3269 -3.0356,7.6901 -1.9778,4.2713 -2.968,7.7358 -2.968,10.3882 0,1.8887 0.6287,3.3943 1.8887,4.5195 1.1252,1.2601 2.7442,1.8889 4.8569,1.8889 3.4187,0 6.6323,-0.877 9.6463,-2.6309 3.8665,-2.6523 7.6225,-5.2832 11.2651,-7.8924 6.1601,-4.0474 11.9398,-7.1963 17.3363,-9.4439 4.1365,-1.6188 7.2178,-2.4284 9.2415,-2.4284 -0.1348,-0.2699 -0.2023,-0.6529 -0.2023,-1.1467 z"
               style="fill:#ffffff;fill-rule:evenodd"
               id="path10" />
          </g>
          <g
             id="Layer1013"
             style="fill:#ffffff">
            <path
               d="m 145.5176,136.5798 c 0,-0.0891 0.2239,-0.3831 0.6746,-0.8769 2.2936,-2.4743 3.4403,-4.1365 3.4403,-4.9918 0,-0.7636 -0.3588,-1.1467 -1.0793,-1.1467 -0.4047,0 -0.7528,0.0889 -1.0442,0.2697 -0.2941,0.1808 -0.4614,0.2915 -0.5074,0.3373 l -0.2023,-0.1349 c 0.0458,-0.0459 0.0891,-0.2482 0.1349,-0.6071 0.3589,-1.7079 1.2143,-2.5633 2.5634,-2.5633 1.1251,0 1.6864,0.6961 1.6864,2.0911 0,1.0334 -0.4263,2.226 -1.2817,3.5752 -0.8553,1.3491 -1.9777,2.5174 -3.3728,3.5078 -0.5396,0.3588 -0.8769,0.5396 -1.0119,0.5396 z"
               style="fill:#ffffff;fill-rule:evenodd"
               id="path11" />
          </g>
          <g
             id="Layer1014"
             style="fill:#ffffff">
            <path
               d="m 70.4388,157.9635 c 0,-0.0891 0.2483,-0.4049 0.742,-0.9444 2.4284,-2.6983 3.6427,-4.4981 3.6427,-5.3966 0,-0.8553 -0.3832,-1.2817 -1.1468,-1.2817 -0.4507,0 -0.8311,0.1134 -1.1467,0.3373 -0.3157,0.2241 -0.4938,0.3373 -0.5397,0.3373 -0.0458,-0.0458 -0.1133,-0.0674 -0.2023,-0.0674 0.0458,-0.0891 0.089,-0.3373 0.1348,-0.742 0.4047,-1.8429 1.3275,-2.7657 2.7657,-2.7657 1.2143,0 1.8213,0.7636 1.8213,2.2935 0,1.1251 -0.4613,2.4176 -1.3814,3.88 -0.9228,1.4598 -2.1263,2.7091 -3.6103,3.7425 -0.6288,0.4048 -0.9902,0.6072 -1.0793,0.6072 z"
               style="fill:#ffffff;fill-rule:evenodd"
               id="path12" />
          </g>
          <g
             id="Layer1015"
             style="fill:#ffffff">
            <path
               d="m 98.7029,86.5272 c 0.2241,-0.9902 0.6531,-2.0911 1.2817,-3.3054 12.2312,-4.6329 24.8024,-9.3305 37.7081,-14.0983 l 0.6071,-0.1349 h 0.1026 c 0.0216,0 0.0323,0.0458 0.0323,0.1349 0,0.0891 -0.0458,0.2482 -0.1349,0.4721 -0.4506,1.0795 -0.7744,1.7081 -0.9767,1.8889 -0.2024,0.1808 -6.2627,2.4958 -18.1809,6.9479 -12.188,4.5871 -19.0011,7.2853 -20.4393,8.0948 z"
               style="fill:#ffffff;fill-rule:evenodd"
               id="path13" />
          </g>
          <g
             id="Layer1016"
             style="fill:#ffffff">
            <path
               d="m 144.8431,117.4222 c -0.1808,0 -0.2699,-0.2482 -0.2699,-0.742 0,-0.8094 -0.4505,-2.3502 -1.3491,-4.6194 -0.8985,-2.272 -1.5298,-3.4078 -1.8887,-3.4078 -0.2699,0 -0.4372,0.0889 -0.5046,0.2697 -0.0674,0.1808 -0.2834,0.2698 -0.6421,0.2698 -0.4049,0 -0.9336,-0.3021 -1.5839,-0.9093 -0.6531,-0.6071 -0.9795,-1.0927 -0.9795,-1.4517 0,-0.1348 0.2698,-0.6637 0.8094,-1.5838 0.5397,-0.9228 0.877,-1.3841 1.0118,-1.3841 1.3492,0 2.5526,0.7877 3.6104,2.3608 1.055,1.5732 1.7862,3.6427 2.1909,6.2061 l 0.0675,0.1349 v 0.3372 h 0.0675 c 0.0458,0 0.0674,-0.0216 0.0674,-0.0674 0,-0.0459 0.0458,-0.1808 0.1349,-0.4047 0.224,-1.5299 0.7636,-3.7992 1.6189,-6.8131 0.8985,-2.1587 1.8673,-3.238 2.9007,-3.238 0.5855,0 1.1251,0.3481 1.6189,1.047 0.4938,0.696 0.742,1.2466 0.742,1.6513 0,0.3156 -0.0889,0.7528 -0.2697,1.3168 -0.1808,0.5612 -0.4264,0.8417 -0.7422,0.8417 -0.0889,0 -0.3371,-0.2482 -0.742,-0.742 -0.4047,-0.4937 -0.831,-0.7419 -1.2815,-0.7419 -0.9444,0 -1.8214,2.2261 -2.6309,6.6782 -0.3156,1.9778 -0.6962,3.3512 -1.1467,4.1148 -0.3158,0.5855 -0.5856,0.8769 -0.8095,0.8769 z"
               style="fill:#ffffff;fill-rule:evenodd"
               id="path14" />
          </g>
          <g
             id="Layer1017"
             style="fill:#ffffff">
            <path
               d="m 114.0156,196.2111 v -0.0674 c 0,-0.0458 0.1807,-0.3157 0.5397,-0.8095 1.7079,-2.2476 2.5632,-3.7317 2.5632,-4.4521 0,-0.7205 -0.3156,-1.0793 -0.9444,-1.0793 -0.3588,0 -0.696,0.1349 -1.0118,0.4047 l -0.4048,0.2699 -0.1348,-0.0676 c 0.0458,-0.0889 0.0674,-0.2697 0.0674,-0.5395 0.1808,-1.619 0.9228,-2.4284 2.2261,-2.4284 0.8553,0 1.3275,0.5612 1.4166,1.6864 v 0.3373 c 0,0.8094 -0.2698,1.7538 -0.8096,2.8331 -0.6745,1.26 -1.573,2.361 -2.6982,3.3054 -0.4047,0.3588 -0.6746,0.5612 -0.8094,0.607 z"
               style="fill:#ffffff;fill-rule:evenodd"
               id="path15" />
          </g>
          <g
             id="Layer1018"
             style="fill:#ffffff">
            <path
               d="m 135.3993,155.8722 h -0.2699 c -0.8553,-0.1806 -1.2817,-0.6529 -1.2817,-1.4166 0,-1.26 0.742,-2.6092 2.2261,-4.0472 1.1251,-1.1252 2.1127,-1.8429 2.968,-2.1587 h 0.135 c 0.0889,0 0.1565,0.0216 0.2023,0.0674 0,0.135 -0.0891,0.2699 -0.2699,0.4049 -0.6745,0.4047 -1.4165,1.0225 -2.2259,1.8564 -0.8095,0.831 -1.2601,1.4705 -1.3492,1.9211 0.2239,-0.135 0.4507,-0.2024 0.6746,-0.2024 l 0.4047,0.0674 c 0.7636,0.135 1.1467,0.5397 1.1467,1.2143 0,0.8094 -0.3831,1.4382 -1.1467,1.8887 -0.4047,0.2698 -0.8094,0.4047 -1.2141,0.4047 z"
               style="fill:#ffffff;fill-rule:evenodd"
               id="path16" />
          </g>
          <g
             id="Layer1019"
             style="fill:#ffffff">
            <path
               d="m 136.4111,97.1179 c -1.0794,0 -1.619,-0.5855 -1.619,-1.7539 0,-1.0792 0.4722,-2.3152 1.4166,-3.7101 0.9444,-1.3951 1.7998,-2.3152 2.5633,-2.7657 l 0.2024,-0.0674 c 0.0459,0 0.0782,0.0215 0.1025,0.0674 0.0217,0.0458 0.0323,0.0891 0.0323,0.1349 0,0.089 -0.0674,0.2024 -0.2022,0.3373 -0.5855,0.5397 -1.1927,1.2925 -1.8215,2.2611 -0.6286,0.966 -0.9442,1.6972 -0.9442,2.191 0.2698,-0.2699 0.6071,-0.4047 1.0118,-0.4047 0.9443,0 1.4166,0.4047 1.4166,1.2142 0,0.7635 -0.2348,1.3707 -0.707,1.8213 -0.4722,0.4507 -0.9578,0.6746 -1.4516,0.6746 z"
               style="fill:#ffffff;fill-rule:evenodd"
               id="path17" />
          </g>
          <g
             id="Layer1020"
             style="fill:#ffffff">
            <path
               d="m 85.7036,157.1966 0.029,0.0609 c 0.0384,0.0803 -0.0373,0.4422 -0.2316,1.0818 -1.0284,3.3804 -1.361,5.4548 -0.993,6.227 0.3481,0.7307 0.8681,0.9312 1.5575,0.6027 0.3654,-0.1741 0.6412,-0.4041 0.8266,-0.6928 0.1877,-0.2897 0.3131,-0.472 0.3737,-0.5517 l 0.1507,0.003 0.1133,0.3944 c 0.5269,1.9398 0.1393,3.2215 -1.1591,3.8401 -1.0546,0.5026 -1.8931,0.1041 -2.5118,-1.1942 -0.484,-1.0157 -0.6181,-2.3446 -0.4071,-3.9905 0.211,-1.6458 0.7459,-3.2456 1.5996,-4.7974 0.3545,-0.6172 0.5719,-0.945 0.6522,-0.9832 z"
               style="fill:#ffffff;fill-rule:evenodd"
               id="path18" />
          </g>
          <g
             id="Layer1021"
             style="fill:#ffffff">
            <path
               d="m 145.1803,75.0596 v -0.0674 c 0,-0.0458 0.135,-0.2239 0.4048,-0.5396 1.4841,-1.5732 2.2261,-2.6308 2.2261,-3.1705 0,-0.4938 -0.2239,-0.742 -0.6746,-0.742 -0.2698,0 -0.5397,0.089 -0.8094,0.2698 l -0.3373,0.0674 0.0674,-0.4721 c 0.2699,-1.0793 0.8311,-1.619 1.6865,-1.619 0.7203,0 1.0792,0.4507 1.0792,1.3491 0,0.6746 -0.2806,1.4382 -0.8418,2.2936 -0.5641,0.8554 -1.2952,1.5974 -2.1937,2.226 -0.3589,0.2698 -0.5612,0.4047 -0.6072,0.4047 z"
               style="fill:#ffffff;fill-rule:evenodd"
               id="path19" />
          </g>
          <g
             id="Layer1022"
             style="fill:#ffffff">
            <path
               d="m 153.2077,175.5021 c -0.6745,0 -1.1683,-0.4264 -1.4841,-1.2817 -0.1808,-0.4507 -0.2699,-0.9902 -0.2699,-1.619 0,-0.7204 0.1134,-1.5298 0.3373,-2.4284 0.3589,-1.53 0.8312,-2.6524 1.4167,-3.3729 l 0.1349,-0.1348 c 0.1348,0 0.2024,0.0674 0.2024,0.2024 l -0.0676,0.2697 c -0.3587,0.7205 -0.6529,1.6406 -0.8768,2.7659 -0.1808,0.7203 -0.2699,1.2815 -0.2699,1.6862 0,0.3158 0.046,0.5614 0.1349,0.7422 0.3158,-0.5857 0.8095,-0.877 1.4841,-0.877 0.5396,0 0.8985,0.2698 1.0793,0.8094 0.1348,0.3158 0.2024,0.6288 0.2024,0.9444 0,0.3589 -0.089,0.7205 -0.2698,1.0793 -0.2699,0.5397 -0.6288,0.8986 -1.0793,1.0793 z"
               style="fill:#ffffff;fill-rule:evenodd"
               id="path20" />
          </g>
          <g
             id="Layer1023"
             style="fill:#ffffff">
            <path
               d="m 150.1722,163.8322 h -0.0675 c 0,-0.0891 0.1133,-0.4048 0.3373,-0.9445 0.8552,-2.2045 1.2816,-3.7317 1.2816,-4.5869 0,-0.2241 -0.0215,-0.4049 -0.0674,-0.5397 -0.1808,-0.4507 -0.4507,-0.6746 -0.8095,-0.6746 -0.4937,0 -0.8986,0.2239 -1.2142,0.6746 -0.1808,0.2239 -0.2914,0.3372 -0.3373,0.3372 h -0.1349 l -0.135,-1.2817 c 0,-1.125 0.4507,-1.8429 1.3492,-2.1585 l 0.5397,-0.1349 c 0.6286,0 1.1252,0.4505 1.484,1.349 0.1807,0.4507 0.2698,0.9661 0.2698,1.5516 0,1.8429 -0.6286,3.7101 -1.8887,5.5988 -0.3158,0.4938 -0.5181,0.7636 -0.6071,0.8096 z"
               style="fill:#ffffff;fill-rule:evenodd"
               id="path21" />
          </g>
          <g
             id="Layer1024"
             style="fill:#ffffff">
            <path
               d="m 115.5671,213.9521 c -0.6288,-0.0458 -0.9444,-0.4047 -0.9444,-1.0793 0,-0.5855 0.2698,-1.2817 0.8094,-2.0911 0.5397,-0.8094 1.0335,-1.3491 1.4841,-1.619 h 0.0675 l 0.1348,0.0674 -0.0674,0.2025 c -0.3589,0.3156 -0.7205,0.7528 -1.0793,1.3166 -0.3589,0.5614 -0.5397,0.9769 -0.5397,1.2468 0.135,-0.135 0.3373,-0.2025 0.6072,-0.2025 0.4937,0 0.7419,0.224 0.7419,0.6746 0,0.4507 -0.1348,0.8094 -0.4047,1.0793 -0.2698,0.2699 -0.5397,0.4047 -0.8094,0.4047 z"
               style="fill:#ffffff;fill-rule:evenodd"
               id="path22" />
          </g>
          <g
             id="Layer1025"
             style="fill:#ffffff">
            <path
               d="m 138.7045,208.016 c 0,-0.0891 0.2025,-0.3589 0.6072,-0.8094 1.9777,-2.1587 2.9681,-3.5969 2.9681,-4.3173 0,-0.6745 -0.3158,-1.0118 -0.9444,-1.0118 -0.3589,0 -0.6638,0.0782 -0.9093,0.2374 -0.2483,0.1565 -0.3939,0.2563 -0.4399,0.3023 l -0.1348,-0.0676 0.0674,-0.3373 c 0.2699,-1.6648 1.0119,-2.4958 2.226,-2.4958 0.9904,0 1.4841,0.6071 1.4841,1.8213 0,0.8986 -0.3697,1.9454 -1.1117,3.1381 -0.742,1.1899 -1.7215,2.191 -2.9357,3.0004 -0.4937,0.3589 -0.7879,0.5397 -0.877,0.5397 z"
               style="fill:#ffffff;fill-rule:evenodd"
               id="path23" />
          </g>
          <g
             id="Layer1026"
             style="fill:#ffffff">
            <path
               d="m 102.8853,175.1648 c 0.2698,-1.0335 0.6961,-2.1371 1.2816,-3.3054 4.9028,-1.8429 9.9377,-3.7101 15.1102,-5.5988 9.4899,-3.5537 14.3224,-5.3291 14.5032,-5.3291 0.089,0 0.1348,0.0674 0.1348,0.2024 l -0.1348,0.4721 c -0.4507,1.0793 -0.8096,1.7324 -1.0793,1.9563 -8.4537,3.103 -18.394,6.9696 -29.8157,11.6025 z"
               style="fill:#ffffff;fill-rule:evenodd"
               id="path24" />
          </g>
          <g
             id="Layer1027"
             style="fill:#ffffff">
            <path
               d="m 113.0711,112.0932 h -0.1348 c -4.3173,-1.0335 -7.3743,-2.0696 -9.1741,-3.1031 -1.4382,-0.8552 -2.1586,-2.0695 -2.1586,-3.6426 l 0.0675,-0.8095 c 0.4506,0.7636 1.4625,1.619 3.0355,2.5634 0.6286,0.3589 2.3151,1.0118 5.0593,1.9563 2.4284,0.8553 3.9124,1.3491 4.4521,1.4839 l 0.0674,-0.2698 c 0,-0.7636 -0.7636,-1.5731 -2.2935,-2.4284 -1.2142,-0.4507 -2.8548,-1.1467 -4.9243,-2.0911 -1.3491,-0.8095 -2.0237,-1.53 -2.0237,-2.1586 0,-0.4507 0.4506,-0.9904 1.3491,-1.619 2.1586,-1.3491 4.4062,-2.0237 6.7457,-2.0237 0.9902,0 1.7322,0.1349 2.226,0.4047 0.4938,0.2699 0.742,0.5855 0.742,0.9444 0,0.2699 -0.1134,0.5181 -0.3373,0.742 -0.6286,0.6288 -1.0333,0.9445 -1.2141,0.9445 h -0.0676 c 0,-0.2699 -0.2482,-0.653 -0.742,-1.1467 -0.2239,-0.1808 -0.742,-0.2699 -1.5514,-0.2699 -1.9347,0 -3.5293,0.2482 -4.7894,0.742 -0.3158,0.1348 -0.4723,0.2698 -0.4723,0.4047 0,0.2699 0.5181,0.6962 1.5516,1.2817 0.7636,0.4507 1.7538,0.8985 2.9681,1.3491 1.2141,0.4507 1.9561,0.742 2.226,0.8769 1.395,0.7636 2.0911,1.6864 2.0911,2.7657 0,0.7636 -0.4263,1.5299 -1.2817,2.2935 -0.6286,0.5398 -1.1008,0.8096 -1.4166,0.8096 z"
               style="fill:#ffffff;fill-rule:evenodd"
               id="path25" />
          </g>
          <g
             id="Layer1028"
             style="fill:#ffffff">
            <path
               d="m 77.6567,135.9052 h -0.0675 c 0,-0.0891 0.1808,-0.3373 0.5396,-0.742 1.7998,-1.9346 2.6983,-3.2378 2.6983,-3.9124 0,-0.5857 -0.2914,-0.877 -0.8769,-0.877 -0.3158,0 -0.5856,0.0674 -0.8096,0.2024 -0.2239,0.1349 -0.3587,0.2023 -0.4047,0.2023 h -0.1348 l 0.0674,-0.3373 c 0.2699,-1.484 0.9659,-2.226 2.0911,-2.226 0.8554,0 1.2817,0.5612 1.2817,1.6865 0,0.8094 -0.3372,1.743 -1.0118,2.8006 -0.6746,1.0552 -1.5516,1.9671 -2.6309,2.7308 -0.4506,0.3156 -0.6962,0.4721 -0.7419,0.4721 z"
               style="fill:#ffffff;fill-rule:evenodd"
               id="path26" />
          </g>
          <g
             id="Layer1029"
             style="fill:#ffffff">
            <path
               d="m 105.7859,192.8384 c -0.1808,-0.0459 -0.2699,-0.2915 -0.2699,-0.7422 0,-0.7203 -0.4263,-2.1477 -1.2817,-4.2821 -0.8552,-2.1369 -1.438,-3.2055 -1.7538,-3.2055 -0.2697,0 -0.437,0.0784 -0.5046,0.2375 -0.0674,0.1565 -0.2589,0.2348 -0.5747,0.2348 -0.4047,0 -0.9093,-0.2807 -1.5164,-0.8419 -0.607,-0.5639 -0.912,-1.001 -0.912,-1.3167 0,-0.1808 0.259,-0.6962 0.7771,-1.5515 0.5154,-0.8554 0.8419,-1.2818 0.9767,-1.2818 1.2601,0 2.3827,0.742 3.3729,2.2262 0.9902,1.484 1.6648,3.4186 2.0237,5.8012 0.0459,0.2699 0.0782,0.4156 0.1025,0.4399 0.0217,0.0214 0.054,0.0323 0.0999,0.0323 l 0.2023,-0.4722 c 0.1808,-1.4382 0.6531,-3.5752 1.4165,-6.4084 0.8554,-2.0237 1.7755,-3.0355 2.7657,-3.0355 0.5398,0 1.047,0.3264 1.5192,0.9795 0.4722,0.6503 0.707,1.1575 0.707,1.5163 0,0.3158 -0.0675,0.6962 -0.2025,1.1469 -0.2239,0.6286 -0.4721,0.9444 -0.7419,0.9444 -0.0891,0 -0.3265,-0.2349 -0.7069,-0.707 -0.3832,-0.4722 -0.7771,-0.7097 -1.1818,-0.7097 -0.8987,0 -1.7324,2.1128 -2.496,6.3409 -0.3157,1.7998 -0.6746,3.0814 -1.0793,3.845 -0.2699,0.5397 -0.5181,0.8096 -0.742,0.8096 z"
               style="fill:#ffffff;fill-rule:evenodd"
               id="path27" />
          </g>
          <g
             id="Layer1030"
             style="fill:#ffffff">
            <path
               d="m 134.185,182.9897 c -1.5731,0 -2.361,-1.3033 -2.361,-3.9125 0,-3.192 0.9228,-6.5432 2.7657,-10.0509 0.4938,-0.8554 0.7879,-1.2817 0.877,-1.2817 0,0.1807 -0.135,0.6745 -0.4047,1.4841 -1.1684,3.6425 -1.754,6.2059 -1.754,7.6899 0,1.9778 0.5181,2.9682 1.5516,2.9682 0.6286,0 1.3491,-0.7637 2.1585,-2.2936 l 0.2699,-0.3373 c 0.0459,0 0.0674,0.1349 0.0674,0.4047 -0.6286,3.5537 -1.6864,5.3291 -3.1704,5.3291 z"
               style="fill:#ffffff;fill-rule:evenodd"
               id="path28" />
          </g>
          <g
             id="Layer1031"
             style="fill:#ffffff">
            <path
               d="m 121.0985,216.1782 -0.0674,-0.0674 c 0,-0.0459 0.2023,-0.2915 0.607,-0.7421 1.9779,-2.1586 2.9681,-3.5968 2.9681,-4.3171 0,-0.6746 -0.3157,-1.0119 -0.9444,-1.0119 -0.3588,0 -0.6638,0.0782 -0.9093,0.2374 -0.2483,0.1565 -0.3939,0.2347 -0.4399,0.2347 l -0.1348,-0.0674 0.0674,-0.3373 c 0.2699,-1.619 1.0335,-2.4284 2.2936,-2.4284 0.9444,0 1.4165,0.6072 1.4165,1.8213 0,0.8985 -0.3697,1.9346 -1.1117,3.103 -0.742,1.1683 -1.7214,2.1802 -2.9357,3.0355 -0.4506,0.3589 -0.7203,0.5397 -0.8094,0.5397 z"
               style="fill:#ffffff;fill-rule:evenodd"
               id="path29" />
          </g>
          <g
             id="Layer1032"
             style="fill:#ffffff">
            <path
               d="m 155.029,219.2138 -0.0674,-0.0676 c 0,-0.0889 0.2482,-0.4047 0.742,-0.9443 2.4284,-2.6092 3.6427,-4.3632 3.6427,-5.2616 0,-0.8095 -0.3833,-1.2142 -1.1469,-1.2142 -0.4506,0 -0.8202,0.0891 -1.1116,0.2699 -0.2941,0.1806 -0.4858,0.2913 -0.5748,0.3371 l -0.1349,-0.0674 0.0675,-0.4722 c 0.3589,-1.9777 1.2817,-2.9681 2.7657,-2.9681 1.1683,0 1.7538,0.742 1.7538,2.2262 0,1.125 -0.4505,2.3959 -1.3491,3.8125 -0.8985,1.4167 -2.0912,2.6416 -3.5752,3.6751 -0.5855,0.4505 -0.9227,0.6746 -1.0118,0.6746 z"
               style="fill:#ffffff;fill-rule:evenodd"
               id="path30" />
          </g>
          <g
             id="Layer1033"
             style="fill:#ffffff">
            <path
               d="m 168.925,215.9758 c -1.3491,0 -2.0237,-1.1467 -2.0237,-3.4403 0,-2.744 0.8095,-5.6447 2.4285,-8.7018 0.4047,-0.7636 0.6529,-1.1468 0.742,-1.1468 0,0.1808 -0.1134,0.6071 -0.3373,1.2817 -1.0335,3.192 -1.5516,5.418 -1.5516,6.6782 0,1.7539 0.4507,2.6307 1.3491,2.6307 0.5398,0 1.1684,-0.6745 1.8889,-2.0237 0.0458,-0.1348 0.1134,-0.2239 0.2023,-0.2697 l 0.135,0.1349 -0.0675,0.2024 c -0.5397,3.103 -1.4625,4.6544 -2.7657,4.6544 z"
               style="fill:#ffffff;fill-rule:evenodd"
               id="path31" />
          </g>
          <g
             id="Layer1034"
             style="fill:#ffffff">
            <path
               d="m 149.6126,195.5527 c -0.977,-0.3828 -1.14,-1.4047 -0.4892,-3.0655 0.7786,-1.9873 2.1879,-3.858 4.2278,-5.6125 0.5097,-0.4382 0.7983,-0.6452 0.8627,-0.6199 -0.0512,0.1309 -0.2543,0.4074 -0.6078,0.8324 -1.6542,2.0183 -2.6611,3.4833 -3.0187,4.3958 -0.4976,1.2702 -0.4201,2.0331 0.2306,2.288 0.3908,0.1532 1.0375,-0.157 1.942,-0.9295 0.0715,-0.0846 0.1456,-0.13 0.2231,-0.138 l 0.0594,0.1361 -0.1063,0.1273 c -1.2713,2.0939 -2.3798,2.9556 -3.3236,2.5858 z"
               style="fill:#ffffff;fill-rule:evenodd"
               id="path32" />
          </g>
          <g
             id="Layer1035"
             style="fill:#ffffff">
            <path
               d="m 182.079,210.3096 c -0.1349,0 -0.2025,-0.1808 -0.2025,-0.5398 0,-0.5855 -0.3373,-1.7187 -1.0118,-3.4051 -0.6746,-1.6864 -1.1467,-2.531 -1.4166,-2.531 -0.2239,0 -0.3588,0.0567 -0.4047,0.17 -0.0458,0.1106 -0.2023,0.1673 -0.4721,0.1673 -0.3158,0 -0.7071,-0.224 -1.1792,-0.6745 -0.4721,-0.4507 -0.7097,-0.8096 -0.7097,-1.0793 0,-0.0891 0.2024,-0.4831 0.6072,-1.1792 0.4047,-0.6988 0.6529,-1.0469 0.742,-1.0469 0.9902,0 1.878,0.5963 2.6659,1.7889 0.7851,1.19 1.3355,2.7306 1.6513,4.6194 0.0458,0.1808 0.0674,0.2914 0.0674,0.3373 h 0.0675 c 0.0459,-0.0459 0.089,-0.1565 0.135,-0.3373 0.1806,-1.1252 0.5855,-2.8116 1.2141,-5.0592 0.6288,-1.619 1.3491,-2.4284 2.1586,-2.4284 0.4048,0 0.7987,0.259 1.1818,0.7771 0.3805,0.5153 0.5722,0.9093 0.5722,1.1792 0,0.2239 -0.0676,0.5612 -0.2025,1.0118 -0.1348,0.4505 -0.3156,0.6746 -0.5397,0.6746 -0.0889,0 -0.2805,-0.1916 -0.572,-0.5722 -0.294,-0.3831 -0.5963,-0.5747 -0.912,-0.5747 -0.7203,0 -1.3708,1.6648 -1.9563,4.9918 -0.4505,2.4742 -0.9442,3.7102 -1.4839,3.7102 z"
               style="fill:#ffffff;fill-rule:evenodd"
               id="path33" />
          </g>
          <g
             id="Layer1036"
             style="fill:#ffffff">
            <path
               d="m 193.7489,187.9814 c 0,-0.089 0.1808,-0.3373 0.5397,-0.742 1.9778,-2.1585 2.968,-3.5967 2.968,-4.3171 0,-0.7205 -0.3157,-1.0794 -0.9443,-1.0794 -0.3158,0 -0.5963,0.0891 -0.8419,0.2698 -0.2482,0.1808 -0.4183,0.2699 -0.5072,0.2699 l -0.135,-0.0674 0.0674,-0.4047 c 0.3158,-1.5732 1.0794,-2.361 2.2935,-2.361 0.9903,0 1.484,0.607 1.484,1.8213 0,0.8984 -0.383,1.9346 -1.1467,3.1029 -0.7636,1.1684 -1.7538,2.1802 -2.9681,3.0356 -0.4505,0.3156 -0.7204,0.4721 -0.8094,0.4721 z"
               style="fill:#ffffff;fill-rule:evenodd"
               id="path34" />
          </g>
          <g
             id="Layer1037"
             style="fill:#ffffff">
            <path
               d="m 190.7133,92.3285 c -0.8985,0 -1.3491,-0.4938 -1.3491,-1.4842 0,-0.8552 0.4263,-1.8886 1.2817,-3.1029 0.7205,-1.0793 1.3949,-1.8213 2.0237,-2.226 h 0.1349 c 0.089,0 0.135,0.0458 0.135,0.1348 0,0.0891 -0.046,0.1808 -0.135,0.2699 -0.4938,0.4506 -1.0011,1.0685 -1.5165,1.8564 -0.5179,0.7853 -0.777,1.3816 -0.777,1.7863 0.224,-0.1808 0.5181,-0.2699 0.8769,-0.2699 0.7636,0 1.1468,0.3373 1.1468,1.0119 0,0.5855 -0.2024,1.0684 -0.6071,1.4517 -0.4047,0.3804 -0.8096,0.572 -1.2143,0.572 z"
               style="fill:#ffffff;fill-rule:evenodd"
               id="path35" />
          </g>
          <g
             id="Layer1038"
             style="fill:#ffffff">
            <path
               d="m 195.7726,173.2759 c -1.1252,0 -1.6864,-0.9659 -1.6864,-2.9005 0,-2.3394 0.6745,-4.7894 2.0237,-7.3528 l 0.6071,-1.0119 0.0674,0.0676 c 0,0.1349 -0.1133,0.4938 -0.3373,1.0793 -0.8553,2.6983 -1.2817,4.587 -1.2817,5.6662 0,1.4382 0.3833,2.1587 1.1469,2.1587 0.4505,0 0.9659,-0.5613 1.5514,-1.6864 l 0.2699,-0.2698 v 0.3372 c -0.4938,2.6093 -1.2817,3.9124 -2.361,3.9124 z"
               style="fill:#ffffff;fill-rule:evenodd"
               id="path36" />
          </g>
          <g
             id="Layer1039"
             style="fill:#ffffff">
            <path
               d="m 190.1062,129.2271 c -1.5298,0 -2.2934,-1.4382 -2.2934,-4.3173 0,-0.8094 0.089,-1.6864 0.2698,-2.6308 0.1349,-0.6746 0.7204,-2.6307 1.7539,-5.8687 0.6745,-1.9346 1.0118,-4.2282 1.0118,-6.8805 l -0.0675,-2.0911 c -0.1349,-3.5968 -1.7323,-6.9265 -4.7894,-9.9835 -0.1349,-0.135 -0.2023,-0.2699 -0.2023,-0.4047 0,-0.135 0.4047,-0.9228 1.2141,-2.361 0.0891,-0.0891 0.1565,-0.135 0.2024,-0.135 0.0891,0 0.1808,0.0459 0.2699,0.135 1.8887,1.8429 3.1488,3.5293 3.7775,5.0591 0.4938,1.3033 0.8311,3.3944 1.0119,6.2735 0.0891,0.6746 0.1348,1.3032 0.1348,1.8887 0,2.2478 -0.5395,5.0135 -1.6189,8.2972 -1.0793,3.2838 -1.6189,5.5989 -1.6189,6.948 0,1.9346 0.5612,2.9005 1.6864,2.9005 0.6287,0 1.3492,-0.7634 2.1586,-2.2934 0.1348,-0.2698 0.2482,-0.4048 0.3373,-0.4048 v 0.4723 c -0.6746,3.5967 -1.7539,5.3965 -3.238,5.3965 z"
               style="fill:#ffffff;fill-rule:evenodd"
               id="path37" />
          </g>
          <g
             id="Layer1040"
             style="fill:#ffffff">
            <path
               d="m 166.6989,161.8083 c -1.3949,0 -2.0911,-0.6744 -2.0911,-2.0235 0,-0.9445 0.5612,-2.361 1.6864,-4.2499 1.1252,-1.8887 2.0695,-2.8331 2.8331,-2.8331 0.6746,0 1.2709,0.3048 1.789,0.912 0.5154,0.6071 0.7744,1.3599 0.7744,2.2584 0,1.3491 -0.4831,2.6766 -1.449,3.98 -0.9687,1.3032 -2.1477,1.9561 -3.5428,1.9561 z m 1.0119,-2.7657 c 1.8429,0 2.7657,-0.5396 2.7657,-1.6188 -0.0458,-1.3034 -0.9228,-1.9563 -2.6309,-1.9563 -0.2697,0 -0.6852,0.4047 -1.2466,1.2141 -0.5638,0.8096 -0.8445,1.3708 -0.8445,1.6864 0.1808,0.4507 0.831,0.6746 1.9563,0.6746 z"
               style="fill:#ffffff;fill-rule:evenodd"
               id="path38" />
          </g>
          <g
             id="Layer1041"
             style="fill:#ffffff">
            <path
               d="m 162.6515,171.1174 c 0.2699,-1.0793 0.6962,-2.226 1.2817,-3.4403 4.7678,-1.6648 9.9619,-3.5077 15.5823,-5.5314 0.2699,-0.089 0.4723,-0.135 0.6072,-0.135 0.089,0 0.135,0.046 0.135,0.135 0,0.1349 -0.046,0.2914 -0.135,0.4722 -0.4505,1.0793 -0.8094,1.7323 -1.0793,1.9562 -4.722,1.6648 -10.1859,3.845 -16.3919,6.5433 z"
               style="fill:#ffffff;fill-rule:evenodd"
               id="path39" />
          </g>
          <g
             id="Layer1042"
             style="fill:#ffffff">
            <path
               d="m 166.2942,185.8229 c -0.0459,0 -0.0891,-0.0675 -0.135,-0.2025 0.0891,-0.5395 0.1808,-1.0441 0.2699,-1.5163 0.089,-0.4722 0.8553,-1.2494 2.2935,-2.3286 -1.7998,-0.6287 -2.6983,-1.4382 -2.6983,-2.4285 0,-1.0792 0.4722,-2.1801 1.4166,-3.3054 1.7998,-2.1585 3.3054,-3.2378 4.5196,-3.2378 1.0794,0 1.6189,0.6071 1.6189,1.8213 0,0.6745 -0.2913,1.4841 -0.8768,2.4284 -0.0459,0.0891 -0.1134,0.135 -0.2024,0.135 -0.046,0 -0.1134,-0.0674 -0.2025,-0.2024 -0.3587,-0.7204 -0.8094,-1.0793 -1.3491,-1.0793 -0.4505,0 -0.9659,0.2024 -1.5514,0.6071 -0.5855,0.4047 -0.877,0.788 -0.877,1.1467 0,0.359 0.3589,0.7314 1.0794,1.1144 0.7204,0.3804 1.3032,0.572 1.7539,0.572 0.4047,0 1.125,-0.2913 2.1585,-0.8768 0.4938,-0.3589 0.9902,-0.6746 1.484,-0.9444 l 0.6746,-0.4723 c 0.5855,-0.2697 0.9228,-0.4047 1.0118,-0.4047 0.0891,0.0459 0.135,0.135 0.135,0.2698 l -0.135,0.5398 c -0.2239,1.0333 -0.5181,1.7079 -0.8768,2.0235 -1.3492,0.8096 -4.2957,2.7658 -8.8368,5.8688 z"
               style="fill:#ffffff;fill-rule:evenodd"
               id="path40" />
          </g>
          <g
             id="Layer1043"
             style="fill:#ffffff">
            <path
               d="m 174.0517,153.1065 c -0.089,0 -0.135,-0.0216 -0.135,-0.0674 0,-0.2239 0.8985,-0.8554 2.6983,-1.8889 l 7.0829,-4.1822 c 3.4618,-2.1128 6.0495,-4.0689 7.7574,-5.8687 -2.2476,-1.1683 -3.3727,-2.4068 -3.3727,-3.7101 0,-1.5731 0.7204,-3.0139 2.1586,-4.3171 1.1252,-1.0335 2.0911,-1.5516 2.9005,-1.5516 1.2601,0 1.8889,0.8985 1.8889,2.6983 0,1.3032 -0.2699,2.7657 -0.8096,4.3847 1.1684,0.6745 1.8889,1.2357 2.1587,1.6864 0,0.6286 -0.5181,1.6864 -1.5515,3.1704 -0.2699,-0.4507 -0.966,-1.0119 -2.0912,-1.6864 -1.26,1.7538 -2.879,3.3512 -4.8568,4.7894 -2.2045,1.6647 -4.2497,2.9005 -6.1385,3.7101 -0.4047,0.2239 -2.5633,1.0576 -6.4758,2.4958 -0.5855,0.2239 -0.9903,0.3373 -1.2142,0.3373 z m 18.8203,-15.1776 c 0.1349,-0.4507 0.2023,-0.8986 0.2023,-1.3491 0,-1.3034 -0.3831,-1.9563 -1.1467,-1.9563 -0.2698,0 -0.6396,0.1242 -1.1117,0.3724 -0.4722,0.2455 -0.7097,0.5046 -0.7097,0.7743 0,0.5397 0.9229,1.2601 2.7658,2.1587 z"
               style="fill:#ffffff;fill-rule:evenodd"
               id="path41" />
          </g>
          <g
             id="Layer1044"
             style="fill:#ffffff">
            <path
               d="m 109.0913,148.1148 -0.2024,-0.0674 c -1.8429,-1.4382 -3.7316,-2.7657 -5.6663,-3.98 l -0.0675,-0.1348 2.3609,-5.1267 c 0.1808,-0.2699 0.3373,-0.4049 0.4723,-0.4049 0.2697,0 1.1818,0.5289 2.7333,1.5867 1.5515,1.055 2.5742,1.8078 3.068,2.2585 l 1.8887,-3.8452 c 0.1348,-0.2697 0.2915,-0.4047 0.4721,-0.4047 0.2699,0 1.3277,0.6288 3.1706,1.8889 1.8429,1.26 2.7657,2.002 2.7657,2.226 0,0.8553 -0.8096,2.6092 -2.4285,5.2616 -0.135,0.1808 -0.2698,0.2697 -0.4047,0.2697 -0.089,0 -0.1566,-0.0214 -0.2024,-0.0674 -1.619,-1.1683 -3.4619,-2.4284 -5.5314,-3.7775 -0.6746,1.573 -1.3491,2.9007 -2.0237,3.9799 -0.135,0.224 -0.2698,0.3373 -0.4047,0.3373 z"
               style="fill:#ffffff;fill-rule:evenodd"
               id="path42" />
          </g>
          <g
             id="Layer1045"
             style="fill:#ffffff">
            <path
               d="m 183.5629,162.6179 -0.2022,-0.0675 c -1.8429,-1.3949 -3.7318,-2.7199 -5.6664,-3.9799 l -0.0675,-0.1349 c 0,-0.089 0.8095,-1.7998 2.4285,-5.1267 0.1348,-0.2698 0.2914,-0.4047 0.4721,-0.4047 0.2241,0 1.1252,0.5289 2.6983,1.5866 1.5732,1.0549 2.5849,1.8077 3.0355,2.2584 l 1.8889,-3.845 c 0.1808,-0.2698 0.3372,-0.4047 0.4721,-0.4047 0.2699,0 1.3383,0.6286 3.2055,1.8887 1.8646,1.2601 2.7982,2.0021 2.7982,2.2261 0,0.8554 -0.8311,2.6093 -2.496,5.2616 -0.1349,0.1808 -0.2482,0.2698 -0.3373,0.2698 l -0.2697,-0.0674 c -1.619,-1.1683 -3.4403,-2.4284 -5.464,-3.7775 -1.3033,2.8789 -2.137,4.3171 -2.496,4.3171 z"
               style="fill:#ffffff;fill-rule:evenodd"
               id="path43" />
          </g>
          <g
             id="Layer1046"
             style="fill:#ffffff">
            <path
               d="m 123.3919,185.8903 -0.2023,-0.0674 c -1.8429,-1.395 -3.7317,-2.7199 -5.6664,-3.98 l -0.0674,-0.1349 2.361,-5.1266 c 0.1808,-0.2699 0.3373,-0.4048 0.4721,-0.4048 0.2699,0 1.3385,0.6422 3.2056,1.9239 1.8645,1.2817 2.7981,2.0102 2.7981,2.191 0,0.8553 -0.831,2.6092 -2.4958,5.2615 -0.135,0.2239 -0.2699,0.3373 -0.4049,0.3373 z"
               style="fill:#ffffff;fill-rule:evenodd"
               id="path44" />
          </g>
          <g
             id="Layer1047"
             style="fill:#ffffff">
            <path
               d="m 180.1227,147.9798 c -0.1349,-0.0458 -0.2023,-0.383 -0.2023,-1.0118 0,-0.4938 0.0458,-1.1684 0.1349,-2.0236 0.2698,-1.9779 0.4047,-4.2714 0.4047,-6.8806 0,-2.3825 -0.4938,-10.5016 -1.484,-24.3517 -0.9902,-13.8502 -1.484,-21.7883 -1.484,-23.812 0,-2.3826 -0.3589,-4.3389 -1.0794,-5.8687 0,-0.8554 0.6745,-2.8791 2.0237,-6.0711 0.1808,-0.4047 0.3372,-0.6071 0.4723,-0.6071 0.2698,0 1.3274,2.5174 3.1704,7.555 1.9777,5.0809 2.9681,8.0058 2.9681,8.7694 0,0.3588 -0.1134,0.5396 -0.3373,0.5396 -0.4507,0 -1.3951,-0.8311 -2.8333,-2.4959 -0.0889,-0.089 -0.1565,-0.1348 -0.2023,-0.1348 -0.089,0 -0.135,0.2023 -0.135,0.607 0,0.224 0.4264,6.1845 1.2818,17.876 0.8553,11.6914 1.2817,18.483 1.2817,20.3717 0,5.7122 -0.877,10.7472 -2.6309,15.1102 -0.6746,1.5732 -1.1251,2.3826 -1.3491,2.4284 z"
               style="fill:#ffffff;fill-rule:evenodd"
               id="path45" />
          </g>
          <g
             id="Layer1048"
             style="fill:#ffffff">
            <path
               d="m 110.238,206.9367 c -9.2199,0 -15.5823,-4.5195 -19.0902,-13.5587 -0.6745,-1.7539 -1.0118,-4.0015 -1.0118,-6.7457 0,-4.587 0.7636,-8.8367 2.2936,-12.7492 0.2239,-0.6286 0.4721,-0.9444 0.7419,-0.9444 0.135,0 0.2025,0.1565 0.2025,0.4722 l -0.0675,0.742 c -1.0794,4.4522 -1.6189,7.3986 -1.6189,8.8368 0,3.7316 1.2357,7.1719 3.7101,10.3208 3.4186,4.1823 8.3429,6.2734 14.7729,6.2734 5.6204,0 11.6025,-1.3275 17.9433,-3.9798 5.0809,-2.1128 9.6678,-4.7679 13.761,-7.96 3.6427,-2.8331 5.464,-4.8784 5.464,-6.1385 0,-0.1808 -0.742,-1.7753 -2.226,-4.7894 -1.8429,-3.5077 -3.192,-6.9263 -4.0474,-10.2534 -0.3589,-1.125 -0.7744,-1.8887 -1.2466,-2.2934 -0.4721,-0.4047 -0.7097,-0.831 -0.7097,-1.2817 0,-0.3156 0.3373,-2.1127 1.0119,-5.3965 0.135,-0.5855 0.2915,-0.8769 0.4723,-0.8769 0.2239,0 0.4721,0.1349 0.742,0.4048 0.9444,1.0333 2.9465,3.0813 6.0035,6.1385 0.4939,0.4938 0.7421,0.8768 0.7421,1.1467 0,0.3589 -0.2915,0.5397 -0.877,0.5397 -0.6286,0 -1.573,-0.2024 -2.8331,-0.6071 0.0891,0.4047 1.1009,2.5632 3.0356,6.4758 1.573,3.192 2.361,5.9361 2.361,8.2296 0,4.587 -1.0119,8.0489 -3.0356,10.3883 -3.2838,3.7775 -8.0489,7.4418 -14.3008,10.9953 -7.9598,4.4063 -15.3584,6.6108 -22.1931,6.6108 z"
               style="fill:#ffffff;fill-rule:evenodd"
               id="path46" />
          </g>
          <g
             id="Layer1049"
             style="fill:#ffffff">
            <path
               d="m 187.5429,188.1163 c 1.9778,1.9779 4.3631,2.9681 7.1504,2.9681 2.3825,0 4.7003,-0.877 6.948,-2.6308 0.6287,-0.6287 0.9444,-2.6307 0.9444,-6.0036 0,-2.0237 -0.877,-15.0211 -2.6309,-38.9897 -1.7538,-24.0144 -2.6307,-37.2817 -2.6307,-39.7992 0,-2.3826 -0.3832,-4.3172 -1.1468,-5.8012 0,-0.8987 0.6962,-2.9224 2.0911,-6.0711 0.135,-0.3589 0.2482,-0.5397 0.3373,-0.5397 0.2699,0 0.4723,0.1808 0.6071,0.5397 0.359,0.8985 1.3032,3.1704 2.8332,6.8131 1.3491,4.0014 2.2261,6.4542 2.6308,7.3526 0.1349,0.7637 0.2024,1.2601 0.2024,1.4842 0,1.125 -1.0118,0.4937 -3.0355,-1.8889 -0.2699,-0.3589 -0.4047,-0.2239 -0.4047,0.4047 0,0.135 0.7635,11.3112 2.2934,33.5258 1.619,22.2148 2.4284,34.5836 2.4284,37.1011 0,7.0613 -1.2601,12.6601 -3.7776,16.7966 -2.1126,3.3728 -4.676,5.0592 -7.6899,5.0592 -2.6525,0 -5.4182,-1.1926 -8.2971,-3.5753 -1.5299,-1.26 -2.7199,-2.6308 -3.5752,-4.1148 l -8.0949,3.5751 c -3.7775,1.4842 -6.6106,2.6768 -8.4993,3.5753 -3.6427,1.7538 -6.1602,3.192 -7.5551,4.3173 -2.5175,1.8887 -6.1602,5.5988 -10.9279,11.1302 -2.8791,3.3728 -5.7555,5.0592 -8.6346,5.0592 -2.5174,0 -4.6544,-1.1252 -6.4082,-3.3728 -1.8888,-2.2476 -2.8333,-5.0133 -2.8333,-8.2971 0,-4.4981 1.8215,-10.3884 5.464,-17.6736 0.3589,-0.7636 0.6746,-1.1467 0.9444,-1.1467 0.135,0 0.2024,0.0674 0.2024,0.2023 0,0.7205 -0.831,3.2837 -2.4959,7.6901 -1.6189,4.4061 -2.4285,7.8707 -2.4285,10.3882 0,1.8888 0.4507,3.3945 1.3492,4.5195 0.9903,1.2601 2.361,1.8889 4.1148,1.8889 3.0141,0 6.0253,-1.5057 9.0392,-4.5196 1.1251,-1.395 2.2477,-2.7199 3.3729,-3.9799 l 2.6981,-3.0356 c 2.4743,-2.8791 5.8012,-5.4423 9.9836,-7.6899 2.3825,-1.3951 6.5891,-3.3512 12.6142,-5.8687 l 6.0037,-2.4286 c -0.8553,-2.3825 -1.2817,-4.7677 -1.2817,-7.1502 0,-3.6427 0.5614,-6.5892 1.6864,-8.8368 1.1253,-2.2936 2.5634,-3.4403 4.3173,-3.4403 1.484,0 2.9896,1.3275 4.5195,3.9799 1.2601,2.3826 1.8889,4.5196 1.8889,6.4083 0,4.9028 -1.4382,8.9259 -4.3173,12.0747 z m -3.6427,-4.5196 c 1.0335,-0.4506 2.2262,-1.1467 3.5753,-2.0911 1.6188,-1.0793 2.4284,-1.8429 2.4284,-2.2936 0,-0.8094 -0.6637,-2.0911 -1.9886,-3.8449 -1.3276,-1.7539 -2.4851,-2.6309 -3.4754,-2.6309 -0.7636,0 -1.5056,0.4615 -2.2261,1.3843 -0.7203,0.9201 -1.0793,1.8078 -1.0793,2.6631 0,0.7205 0.3833,1.9563 1.1469,3.7102 0.7203,1.573 1.2601,2.6092 1.6188,3.1029 z"
               style="fill:#ffffff;fill-rule:evenodd"
               id="path47" />
          </g>
          <g
             id="Layer1050"
             style="fill:#ffffff">
            <path
               d="m 212.704,178.2678 c -0.1806,0 -0.2697,-0.2915 -0.2697,-0.877 0,-0.4938 0.0675,-1.2142 0.2023,-2.1586 0.2241,-1.9346 0.3373,-4.2282 0.3373,-6.8805 0,-2.3394 -0.4938,-10.4342 -1.484,-24.2843 -0.9902,-13.8501 -1.484,-21.8099 -1.484,-23.8795 0,-2.3394 -0.3589,-4.2713 -1.0794,-5.8013 0,-0.8553 0.6746,-2.9005 2.0237,-6.1385 0.1808,-0.3588 0.3589,-0.5396 0.5397,-0.5396 0.0891,0 0.2482,0.2023 0.4721,0.6072 0.359,0.8552 1.2709,3.2053 2.7334,7.0505 1.4597,3.8449 2.3259,6.2167 2.5958,7.1152 0.1807,0.6746 0.2698,1.1927 0.2698,1.5514 0,0.3158 -0.0891,0.4723 -0.2698,0.4723 -0.4507,0 -1.3951,-0.831 -2.8332,-2.4958 l -0.2024,-0.135 c -0.1349,0 -0.2024,0.2239 -0.2024,0.6746 0,0.1807 0.4263,6.1277 1.2817,17.8435 0.8553,11.7131 1.2817,18.4939 1.2817,20.3368 0,5.7553 -0.8554,10.7929 -2.5634,15.1102 -0.6287,1.619 -1.0793,2.4284 -1.3492,2.4284 z"
               style="fill:#ffffff;fill-rule:evenodd"
               id="path48" />
          </g>
        </g>
      </g>
    </g>
  </g>
  <g
     id="Layer1051"
     style="display:inline;fill:#ffffff">
    <path
       d="m 144.0002,58.3842 c -47.2087,0 -85.6159,38.4072 -85.6159,85.6159 0,47.2087 38.4072,85.6158 85.6159,85.6158 47.2088,0 85.6159,-38.4071 85.6159,-85.6158 0,-47.2087 -38.4071,-85.6159 -85.6159,-85.6159 z m 0,173.1972 c -11.8228,0 -23.2931,-2.3151 -34.091,-6.8831 -10.4293,-4.4109 -19.7955,-10.726 -27.8385,-18.7692 -8.043,-8.0421 -14.3578,-17.4089 -18.769,-27.8381 -4.5673,-10.7978 -6.883,-22.2682 -6.883,-34.0909 0,-11.8228 2.3157,-23.2931 6.883,-34.091 4.4112,-10.4293 10.726,-19.7955 18.769,-27.8385 8.043,-8.043 17.4092,-14.3579 27.8385,-18.7691 10.7979,-4.5672 22.2682,-6.8829 34.091,-6.8829 11.8228,0 23.2931,2.3157 34.091,6.8829 10.4291,4.4112 19.796,10.7261 27.8382,18.7691 8.043,8.043 14.3582,17.4092 18.7691,27.8385 4.568,10.7979 6.8831,22.2682 6.8831,34.091 0,11.8227 -2.3151,23.2931 -6.8831,34.0909 -4.4109,10.4292 -10.7261,19.796 -18.7691,27.8381 -8.0422,8.0432 -17.4091,14.3583 -27.8382,18.7692 -10.7979,4.568 -22.2682,6.8831 -34.091,6.8831 z"
       style="display:inline;fill:#ffffff;fill-rule:evenodd"
       id="path207" />
  </g>
</svg>
